<mxfile host="Electron" modified="2024-03-24T23:42:19.906Z" agent="Mozilla/5.0 (Windows NT 10.0; Win64; x64) AppleWebKit/537.36 (KHTML, like Gecko) draw.io/24.1.0 Chrome/120.0.6099.109 Electron/28.1.0 Safari/537.36" etag="MhU_SH3fZPg4LJsxkgE4" version="24.1.0" type="device">
  <diagram name="Página-1" id="rehpybgI74Dkc2j7NGAb">
    <mxGraphModel dx="594" dy="645" grid="1" gridSize="10" guides="1" tooltips="1" connect="1" arrows="1" fold="1" page="1" pageScale="1" pageWidth="827" pageHeight="1169" math="0" shadow="0">
      <root>
        <mxCell id="0" />
        <mxCell id="1" parent="0" />
        <mxCell id="HGqqvJbhv1KcNYSH-CVA-1" value="Provincia" style="swimlane;fontStyle=1;align=center;verticalAlign=top;childLayout=stackLayout;horizontal=1;startSize=26;horizontalStack=0;resizeParent=1;resizeParentMax=0;resizeLast=0;collapsible=1;marginBottom=0;whiteSpace=wrap;html=1;" parent="1" vertex="1">
          <mxGeometry x="579" y="30" width="160" height="112" as="geometry" />
        </mxCell>
        <mxCell id="HGqqvJbhv1KcNYSH-CVA-2" value="- nombre: cadena" style="text;strokeColor=none;fillColor=none;align=left;verticalAlign=top;spacingLeft=4;spacingRight=4;overflow=hidden;rotatable=0;points=[[0,0.5],[1,0.5]];portConstraint=eastwest;whiteSpace=wrap;html=1;" parent="HGqqvJbhv1KcNYSH-CVA-1" vertex="1">
          <mxGeometry y="26" width="160" height="26" as="geometry" />
        </mxCell>
        <mxCell id="HGqqvJbhv1KcNYSH-CVA-5" value="- codigo postal: cadena" style="text;strokeColor=none;fillColor=none;align=left;verticalAlign=top;spacingLeft=4;spacingRight=4;overflow=hidden;rotatable=0;points=[[0,0.5],[1,0.5]];portConstraint=eastwest;whiteSpace=wrap;html=1;" parent="HGqqvJbhv1KcNYSH-CVA-1" vertex="1">
          <mxGeometry y="52" width="160" height="26" as="geometry" />
        </mxCell>
        <mxCell id="HGqqvJbhv1KcNYSH-CVA-3" value="" style="line;strokeWidth=1;fillColor=none;align=left;verticalAlign=middle;spacingTop=-1;spacingLeft=3;spacingRight=3;rotatable=0;labelPosition=right;points=[];portConstraint=eastwest;strokeColor=inherit;" parent="HGqqvJbhv1KcNYSH-CVA-1" vertex="1">
          <mxGeometry y="78" width="160" height="8" as="geometry" />
        </mxCell>
        <mxCell id="HGqqvJbhv1KcNYSH-CVA-4" value="+ method(type): type" style="text;strokeColor=none;fillColor=none;align=left;verticalAlign=top;spacingLeft=4;spacingRight=4;overflow=hidden;rotatable=0;points=[[0,0.5],[1,0.5]];portConstraint=eastwest;whiteSpace=wrap;html=1;" parent="HGqqvJbhv1KcNYSH-CVA-1" vertex="1">
          <mxGeometry y="86" width="160" height="26" as="geometry" />
        </mxCell>
        <mxCell id="HGqqvJbhv1KcNYSH-CVA-6" value="Farmacia" style="swimlane;fontStyle=1;align=center;verticalAlign=top;childLayout=stackLayout;horizontal=1;startSize=26;horizontalStack=0;resizeParent=1;resizeParentMax=0;resizeLast=0;collapsible=1;marginBottom=0;whiteSpace=wrap;html=1;" parent="1" vertex="1">
          <mxGeometry x="309" y="30" width="160" height="138" as="geometry">
            <mxRectangle y="68" width="90" height="30" as="alternateBounds" />
          </mxGeometry>
        </mxCell>
        <mxCell id="HGqqvJbhv1KcNYSH-CVA-7" value="- id: entero" style="text;strokeColor=none;fillColor=none;align=left;verticalAlign=top;spacingLeft=4;spacingRight=4;overflow=hidden;rotatable=0;points=[[0,0.5],[1,0.5]];portConstraint=eastwest;whiteSpace=wrap;html=1;" parent="HGqqvJbhv1KcNYSH-CVA-6" vertex="1">
          <mxGeometry y="26" width="160" height="26" as="geometry" />
        </mxCell>
        <mxCell id="HGqqvJbhv1KcNYSH-CVA-12" value="- dirección: cadena" style="text;strokeColor=none;fillColor=none;align=left;verticalAlign=top;spacingLeft=4;spacingRight=4;overflow=hidden;rotatable=0;points=[[0,0.5],[1,0.5]];portConstraint=eastwest;whiteSpace=wrap;html=1;" parent="HGqqvJbhv1KcNYSH-CVA-6" vertex="1">
          <mxGeometry y="52" width="160" height="26" as="geometry" />
        </mxCell>
        <mxCell id="HGqqvJbhv1KcNYSH-CVA-8" value="- días de guardia: entero" style="text;strokeColor=none;fillColor=none;align=left;verticalAlign=top;spacingLeft=4;spacingRight=4;overflow=hidden;rotatable=0;points=[[0,0.5],[1,0.5]];portConstraint=eastwest;whiteSpace=wrap;html=1;" parent="HGqqvJbhv1KcNYSH-CVA-6" vertex="1">
          <mxGeometry y="78" width="160" height="26" as="geometry" />
        </mxCell>
        <mxCell id="HGqqvJbhv1KcNYSH-CVA-9" value="" style="line;strokeWidth=1;fillColor=none;align=left;verticalAlign=middle;spacingTop=-1;spacingLeft=3;spacingRight=3;rotatable=0;labelPosition=right;points=[];portConstraint=eastwest;strokeColor=inherit;" parent="HGqqvJbhv1KcNYSH-CVA-6" vertex="1">
          <mxGeometry y="104" width="160" height="8" as="geometry" />
        </mxCell>
        <mxCell id="HGqqvJbhv1KcNYSH-CVA-10" value="+ method(type): type" style="text;strokeColor=none;fillColor=none;align=left;verticalAlign=top;spacingLeft=4;spacingRight=4;overflow=hidden;rotatable=0;points=[[0,0.5],[1,0.5]];portConstraint=eastwest;whiteSpace=wrap;html=1;" parent="HGqqvJbhv1KcNYSH-CVA-6" vertex="1">
          <mxGeometry y="112" width="160" height="26" as="geometry" />
        </mxCell>
        <mxCell id="HGqqvJbhv1KcNYSH-CVA-13" value="Empleado" style="swimlane;fontStyle=1;align=center;verticalAlign=top;childLayout=stackLayout;horizontal=1;startSize=26;horizontalStack=0;resizeParent=1;resizeParentMax=0;resizeLast=0;collapsible=1;marginBottom=0;whiteSpace=wrap;html=1;" parent="1" vertex="1">
          <mxGeometry x="49" y="30" width="160" height="164" as="geometry" />
        </mxCell>
        <mxCell id="HGqqvJbhv1KcNYSH-CVA-14" value="- cuil: cadena" style="text;strokeColor=none;fillColor=none;align=left;verticalAlign=top;spacingLeft=4;spacingRight=4;overflow=hidden;rotatable=0;points=[[0,0.5],[1,0.5]];portConstraint=eastwest;whiteSpace=wrap;html=1;" parent="HGqqvJbhv1KcNYSH-CVA-13" vertex="1">
          <mxGeometry y="26" width="160" height="26" as="geometry" />
        </mxCell>
        <mxCell id="HGqqvJbhv1KcNYSH-CVA-19" value="- nombre: cadena" style="text;strokeColor=none;fillColor=none;align=left;verticalAlign=top;spacingLeft=4;spacingRight=4;overflow=hidden;rotatable=0;points=[[0,0.5],[1,0.5]];portConstraint=eastwest;whiteSpace=wrap;html=1;" parent="HGqqvJbhv1KcNYSH-CVA-13" vertex="1">
          <mxGeometry y="52" width="160" height="26" as="geometry" />
        </mxCell>
        <mxCell id="HGqqvJbhv1KcNYSH-CVA-15" value="- dirección: cadena" style="text;strokeColor=none;fillColor=none;align=left;verticalAlign=top;spacingLeft=4;spacingRight=4;overflow=hidden;rotatable=0;points=[[0,0.5],[1,0.5]];portConstraint=eastwest;whiteSpace=wrap;html=1;" parent="HGqqvJbhv1KcNYSH-CVA-13" vertex="1">
          <mxGeometry y="78" width="160" height="26" as="geometry" />
        </mxCell>
        <mxCell id="HGqqvJbhv1KcNYSH-CVA-16" value="- fecha de ingreso: cadena" style="text;strokeColor=none;fillColor=none;align=left;verticalAlign=top;spacingLeft=4;spacingRight=4;overflow=hidden;rotatable=0;points=[[0,0.5],[1,0.5]];portConstraint=eastwest;whiteSpace=wrap;html=1;" parent="HGqqvJbhv1KcNYSH-CVA-13" vertex="1">
          <mxGeometry y="104" width="160" height="26" as="geometry" />
        </mxCell>
        <mxCell id="HGqqvJbhv1KcNYSH-CVA-17" value="" style="line;strokeWidth=1;fillColor=none;align=left;verticalAlign=middle;spacingTop=-1;spacingLeft=3;spacingRight=3;rotatable=0;labelPosition=right;points=[];portConstraint=eastwest;strokeColor=inherit;" parent="HGqqvJbhv1KcNYSH-CVA-13" vertex="1">
          <mxGeometry y="130" width="160" height="8" as="geometry" />
        </mxCell>
        <mxCell id="HGqqvJbhv1KcNYSH-CVA-18" value="+ method(type): type" style="text;strokeColor=none;fillColor=none;align=left;verticalAlign=top;spacingLeft=4;spacingRight=4;overflow=hidden;rotatable=0;points=[[0,0.5],[1,0.5]];portConstraint=eastwest;whiteSpace=wrap;html=1;" parent="HGqqvJbhv1KcNYSH-CVA-13" vertex="1">
          <mxGeometry y="138" width="160" height="26" as="geometry" />
        </mxCell>
        <mxCell id="HGqqvJbhv1KcNYSH-CVA-49" style="edgeStyle=orthogonalEdgeStyle;rounded=0;orthogonalLoop=1;jettySize=auto;html=1;exitX=0.5;exitY=0;exitDx=0;exitDy=0;entryX=1;entryY=0.5;entryDx=0;entryDy=0;endArrow=diamond;endFill=1;" parent="1" source="HGqqvJbhv1KcNYSH-CVA-20" target="HGqqvJbhv1KcNYSH-CVA-8" edge="1">
          <mxGeometry relative="1" as="geometry" />
        </mxCell>
        <mxCell id="HGqqvJbhv1KcNYSH-CVA-20" value="Medicamento" style="swimlane;fontStyle=1;align=center;verticalAlign=top;childLayout=stackLayout;horizontal=1;startSize=26;horizontalStack=0;resizeParent=1;resizeParentMax=0;resizeLast=0;collapsible=1;marginBottom=0;whiteSpace=wrap;html=1;" parent="1" vertex="1">
          <mxGeometry x="440" y="240" width="160" height="138" as="geometry">
            <mxRectangle x="330" y="370" width="110" height="30" as="alternateBounds" />
          </mxGeometry>
        </mxCell>
        <mxCell id="HGqqvJbhv1KcNYSH-CVA-21" value="- nombre: cadena" style="text;strokeColor=none;fillColor=none;align=left;verticalAlign=top;spacingLeft=4;spacingRight=4;overflow=hidden;rotatable=0;points=[[0,0.5],[1,0.5]];portConstraint=eastwest;whiteSpace=wrap;html=1;" parent="HGqqvJbhv1KcNYSH-CVA-20" vertex="1">
          <mxGeometry y="26" width="160" height="26" as="geometry" />
        </mxCell>
        <mxCell id="HGqqvJbhv1KcNYSH-CVA-22" value="- presentación: cadena" style="text;strokeColor=none;fillColor=none;align=left;verticalAlign=top;spacingLeft=4;spacingRight=4;overflow=hidden;rotatable=0;points=[[0,0.5],[1,0.5]];portConstraint=eastwest;whiteSpace=wrap;html=1;" parent="HGqqvJbhv1KcNYSH-CVA-20" vertex="1">
          <mxGeometry y="52" width="160" height="26" as="geometry" />
        </mxCell>
        <mxCell id="HGqqvJbhv1KcNYSH-CVA-23" value="- precio: real" style="text;strokeColor=none;fillColor=none;align=left;verticalAlign=top;spacingLeft=4;spacingRight=4;overflow=hidden;rotatable=0;points=[[0,0.5],[1,0.5]];portConstraint=eastwest;whiteSpace=wrap;html=1;" parent="HGqqvJbhv1KcNYSH-CVA-20" vertex="1">
          <mxGeometry y="78" width="160" height="26" as="geometry" />
        </mxCell>
        <mxCell id="HGqqvJbhv1KcNYSH-CVA-24" value="" style="line;strokeWidth=1;fillColor=none;align=left;verticalAlign=middle;spacingTop=-1;spacingLeft=3;spacingRight=3;rotatable=0;labelPosition=right;points=[];portConstraint=eastwest;strokeColor=inherit;" parent="HGqqvJbhv1KcNYSH-CVA-20" vertex="1">
          <mxGeometry y="104" width="160" height="8" as="geometry" />
        </mxCell>
        <mxCell id="HGqqvJbhv1KcNYSH-CVA-25" value="+ method(type): type" style="text;strokeColor=none;fillColor=none;align=left;verticalAlign=top;spacingLeft=4;spacingRight=4;overflow=hidden;rotatable=0;points=[[0,0.5],[1,0.5]];portConstraint=eastwest;whiteSpace=wrap;html=1;" parent="HGqqvJbhv1KcNYSH-CVA-20" vertex="1">
          <mxGeometry y="112" width="160" height="26" as="geometry" />
        </mxCell>
        <mxCell id="HGqqvJbhv1KcNYSH-CVA-50" style="edgeStyle=orthogonalEdgeStyle;rounded=0;orthogonalLoop=1;jettySize=auto;html=1;exitX=0.5;exitY=0;exitDx=0;exitDy=0;entryX=1;entryY=0.5;entryDx=0;entryDy=0;endArrow=diamond;endFill=1;" parent="1" source="HGqqvJbhv1KcNYSH-CVA-26" target="HGqqvJbhv1KcNYSH-CVA-22" edge="1">
          <mxGeometry relative="1" as="geometry" />
        </mxCell>
        <mxCell id="HGqqvJbhv1KcNYSH-CVA-26" value="Monodroga" style="swimlane;fontStyle=1;align=center;verticalAlign=top;childLayout=stackLayout;horizontal=1;startSize=26;horizontalStack=0;resizeParent=1;resizeParentMax=0;resizeLast=0;collapsible=1;marginBottom=0;whiteSpace=wrap;html=1;" parent="1" vertex="1">
          <mxGeometry x="620" y="430" width="160" height="112" as="geometry">
            <mxRectangle x="510" y="570" width="100" height="30" as="alternateBounds" />
          </mxGeometry>
        </mxCell>
        <mxCell id="HGqqvJbhv1KcNYSH-CVA-27" value="- nombre cientifico: cadena" style="text;strokeColor=none;fillColor=none;align=left;verticalAlign=top;spacingLeft=4;spacingRight=4;overflow=hidden;rotatable=0;points=[[0,0.5],[1,0.5]];portConstraint=eastwest;whiteSpace=wrap;html=1;" parent="HGqqvJbhv1KcNYSH-CVA-26" vertex="1">
          <mxGeometry y="26" width="160" height="26" as="geometry" />
        </mxCell>
        <mxCell id="HGqqvJbhv1KcNYSH-CVA-28" value="- nombre comercial: cadena" style="text;strokeColor=none;fillColor=none;align=left;verticalAlign=top;spacingLeft=4;spacingRight=4;overflow=hidden;rotatable=0;points=[[0,0.5],[1,0.5]];portConstraint=eastwest;whiteSpace=wrap;html=1;" parent="HGqqvJbhv1KcNYSH-CVA-26" vertex="1">
          <mxGeometry y="52" width="160" height="26" as="geometry" />
        </mxCell>
        <mxCell id="HGqqvJbhv1KcNYSH-CVA-29" value="" style="line;strokeWidth=1;fillColor=none;align=left;verticalAlign=middle;spacingTop=-1;spacingLeft=3;spacingRight=3;rotatable=0;labelPosition=right;points=[];portConstraint=eastwest;strokeColor=inherit;" parent="HGqqvJbhv1KcNYSH-CVA-26" vertex="1">
          <mxGeometry y="78" width="160" height="8" as="geometry" />
        </mxCell>
        <mxCell id="HGqqvJbhv1KcNYSH-CVA-30" value="+ method(type): type" style="text;strokeColor=none;fillColor=none;align=left;verticalAlign=top;spacingLeft=4;spacingRight=4;overflow=hidden;rotatable=0;points=[[0,0.5],[1,0.5]];portConstraint=eastwest;whiteSpace=wrap;html=1;" parent="HGqqvJbhv1KcNYSH-CVA-26" vertex="1">
          <mxGeometry y="86" width="160" height="26" as="geometry" />
        </mxCell>
        <mxCell id="HGqqvJbhv1KcNYSH-CVA-31" value="Laboratorio" style="swimlane;fontStyle=1;align=center;verticalAlign=top;childLayout=stackLayout;horizontal=1;startSize=26;horizontalStack=0;resizeParent=1;resizeParentMax=0;resizeLast=0;collapsible=1;marginBottom=0;whiteSpace=wrap;html=1;" parent="1" vertex="1">
          <mxGeometry x="70" y="240" width="160" height="138" as="geometry">
            <mxRectangle x="120" y="330" width="100" height="30" as="alternateBounds" />
          </mxGeometry>
        </mxCell>
        <mxCell id="HGqqvJbhv1KcNYSH-CVA-32" value="- nombre: cadena" style="text;strokeColor=none;fillColor=none;align=left;verticalAlign=top;spacingLeft=4;spacingRight=4;overflow=hidden;rotatable=0;points=[[0,0.5],[1,0.5]];portConstraint=eastwest;whiteSpace=wrap;html=1;" parent="HGqqvJbhv1KcNYSH-CVA-31" vertex="1">
          <mxGeometry y="26" width="160" height="26" as="geometry" />
        </mxCell>
        <mxCell id="HGqqvJbhv1KcNYSH-CVA-33" value="- domicilio: cadena" style="text;strokeColor=none;fillColor=none;align=left;verticalAlign=top;spacingLeft=4;spacingRight=4;overflow=hidden;rotatable=0;points=[[0,0.5],[1,0.5]];portConstraint=eastwest;whiteSpace=wrap;html=1;" parent="HGqqvJbhv1KcNYSH-CVA-31" vertex="1">
          <mxGeometry y="52" width="160" height="26" as="geometry" />
        </mxCell>
        <mxCell id="HGqqvJbhv1KcNYSH-CVA-34" value="- nya del dueño: cadena" style="text;strokeColor=none;fillColor=none;align=left;verticalAlign=top;spacingLeft=4;spacingRight=4;overflow=hidden;rotatable=0;points=[[0,0.5],[1,0.5]];portConstraint=eastwest;whiteSpace=wrap;html=1;" parent="HGqqvJbhv1KcNYSH-CVA-31" vertex="1">
          <mxGeometry y="78" width="160" height="26" as="geometry" />
        </mxCell>
        <mxCell id="HGqqvJbhv1KcNYSH-CVA-35" value="" style="line;strokeWidth=1;fillColor=none;align=left;verticalAlign=middle;spacingTop=-1;spacingLeft=3;spacingRight=3;rotatable=0;labelPosition=right;points=[];portConstraint=eastwest;strokeColor=inherit;" parent="HGqqvJbhv1KcNYSH-CVA-31" vertex="1">
          <mxGeometry y="104" width="160" height="8" as="geometry" />
        </mxCell>
        <mxCell id="HGqqvJbhv1KcNYSH-CVA-36" value="+ method(type): type" style="text;strokeColor=none;fillColor=none;align=left;verticalAlign=top;spacingLeft=4;spacingRight=4;overflow=hidden;rotatable=0;points=[[0,0.5],[1,0.5]];portConstraint=eastwest;whiteSpace=wrap;html=1;" parent="HGqqvJbhv1KcNYSH-CVA-31" vertex="1">
          <mxGeometry y="112" width="160" height="26" as="geometry" />
        </mxCell>
        <mxCell id="HGqqvJbhv1KcNYSH-CVA-37" value="AccionTerapeutica" style="swimlane;fontStyle=1;align=center;verticalAlign=top;childLayout=stackLayout;horizontal=1;startSize=26;horizontalStack=0;resizeParent=1;resizeParentMax=0;resizeLast=0;collapsible=1;marginBottom=0;whiteSpace=wrap;html=1;" parent="1" vertex="1">
          <mxGeometry x="440" y="510" width="160" height="112" as="geometry">
            <mxRectangle x="130" y="540" width="140" height="30" as="alternateBounds" />
          </mxGeometry>
        </mxCell>
        <mxCell id="HGqqvJbhv1KcNYSH-CVA-38" value="- nombre: cadena" style="text;strokeColor=none;fillColor=none;align=left;verticalAlign=top;spacingLeft=4;spacingRight=4;overflow=hidden;rotatable=0;points=[[0,0.5],[1,0.5]];portConstraint=eastwest;whiteSpace=wrap;html=1;" parent="HGqqvJbhv1KcNYSH-CVA-37" vertex="1">
          <mxGeometry y="26" width="160" height="26" as="geometry" />
        </mxCell>
        <mxCell id="HGqqvJbhv1KcNYSH-CVA-39" value="- tiempo: cadena" style="text;strokeColor=none;fillColor=none;align=left;verticalAlign=top;spacingLeft=4;spacingRight=4;overflow=hidden;rotatable=0;points=[[0,0.5],[1,0.5]];portConstraint=eastwest;whiteSpace=wrap;html=1;" parent="HGqqvJbhv1KcNYSH-CVA-37" vertex="1">
          <mxGeometry y="52" width="160" height="26" as="geometry" />
        </mxCell>
        <mxCell id="HGqqvJbhv1KcNYSH-CVA-40" value="" style="line;strokeWidth=1;fillColor=none;align=left;verticalAlign=middle;spacingTop=-1;spacingLeft=3;spacingRight=3;rotatable=0;labelPosition=right;points=[];portConstraint=eastwest;strokeColor=inherit;" parent="HGqqvJbhv1KcNYSH-CVA-37" vertex="1">
          <mxGeometry y="78" width="160" height="8" as="geometry" />
        </mxCell>
        <mxCell id="HGqqvJbhv1KcNYSH-CVA-41" value="+ method(type): type" style="text;strokeColor=none;fillColor=none;align=left;verticalAlign=top;spacingLeft=4;spacingRight=4;overflow=hidden;rotatable=0;points=[[0,0.5],[1,0.5]];portConstraint=eastwest;whiteSpace=wrap;html=1;" parent="HGqqvJbhv1KcNYSH-CVA-37" vertex="1">
          <mxGeometry y="86" width="160" height="26" as="geometry" />
        </mxCell>
        <mxCell id="HGqqvJbhv1KcNYSH-CVA-42" value="Registro" style="swimlane;fontStyle=1;align=center;verticalAlign=top;childLayout=stackLayout;horizontal=1;startSize=26;horizontalStack=0;resizeParent=1;resizeParentMax=0;resizeLast=0;collapsible=1;marginBottom=0;whiteSpace=wrap;html=1;" parent="1" vertex="1">
          <mxGeometry x="250" y="390" width="160" height="86" as="geometry">
            <mxRectangle x="480" y="740" width="90" height="30" as="alternateBounds" />
          </mxGeometry>
        </mxCell>
        <mxCell id="HGqqvJbhv1KcNYSH-CVA-43" value="- fecha: cadena" style="text;strokeColor=none;fillColor=none;align=left;verticalAlign=top;spacingLeft=4;spacingRight=4;overflow=hidden;rotatable=0;points=[[0,0.5],[1,0.5]];portConstraint=eastwest;whiteSpace=wrap;html=1;" parent="HGqqvJbhv1KcNYSH-CVA-42" vertex="1">
          <mxGeometry y="26" width="160" height="26" as="geometry" />
        </mxCell>
        <mxCell id="HGqqvJbhv1KcNYSH-CVA-45" value="" style="line;strokeWidth=1;fillColor=none;align=left;verticalAlign=middle;spacingTop=-1;spacingLeft=3;spacingRight=3;rotatable=0;labelPosition=right;points=[];portConstraint=eastwest;strokeColor=inherit;" parent="HGqqvJbhv1KcNYSH-CVA-42" vertex="1">
          <mxGeometry y="52" width="160" height="8" as="geometry" />
        </mxCell>
        <mxCell id="HGqqvJbhv1KcNYSH-CVA-46" value="+ method(type): type" style="text;strokeColor=none;fillColor=none;align=left;verticalAlign=top;spacingLeft=4;spacingRight=4;overflow=hidden;rotatable=0;points=[[0,0.5],[1,0.5]];portConstraint=eastwest;whiteSpace=wrap;html=1;" parent="HGqqvJbhv1KcNYSH-CVA-42" vertex="1">
          <mxGeometry y="60" width="160" height="26" as="geometry" />
        </mxCell>
        <mxCell id="HGqqvJbhv1KcNYSH-CVA-47" style="edgeStyle=orthogonalEdgeStyle;rounded=0;orthogonalLoop=1;jettySize=auto;html=1;exitX=1;exitY=0.5;exitDx=0;exitDy=0;entryX=0;entryY=0.5;entryDx=0;entryDy=0;endArrow=none;endFill=0;" parent="1" source="HGqqvJbhv1KcNYSH-CVA-12" target="HGqqvJbhv1KcNYSH-CVA-5" edge="1">
          <mxGeometry relative="1" as="geometry" />
        </mxCell>
        <mxCell id="HGqqvJbhv1KcNYSH-CVA-48" style="edgeStyle=orthogonalEdgeStyle;rounded=0;orthogonalLoop=1;jettySize=auto;html=1;exitX=1;exitY=0.5;exitDx=0;exitDy=0;entryX=0;entryY=0.5;entryDx=0;entryDy=0;endArrow=diamond;endFill=0;" parent="1" source="HGqqvJbhv1KcNYSH-CVA-19" target="HGqqvJbhv1KcNYSH-CVA-12" edge="1">
          <mxGeometry relative="1" as="geometry" />
        </mxCell>
        <mxCell id="HGqqvJbhv1KcNYSH-CVA-52" style="edgeStyle=orthogonalEdgeStyle;rounded=0;orthogonalLoop=1;jettySize=auto;html=1;exitX=0.5;exitY=0;exitDx=0;exitDy=0;entryX=0.497;entryY=1.018;entryDx=0;entryDy=0;endArrow=diamond;endFill=0;entryPerimeter=0;" parent="1" source="HGqqvJbhv1KcNYSH-CVA-37" target="HGqqvJbhv1KcNYSH-CVA-25" edge="1">
          <mxGeometry relative="1" as="geometry" />
        </mxCell>
        <mxCell id="HGqqvJbhv1KcNYSH-CVA-55" value="" style="group" parent="1" vertex="1" connectable="0">
          <mxGeometry x="329.9411764705883" y="300" width="10.058823529411711" height="5" as="geometry" />
        </mxCell>
        <mxCell id="HGqqvJbhv1KcNYSH-CVA-53" style="edgeStyle=orthogonalEdgeStyle;rounded=0;orthogonalLoop=1;jettySize=auto;html=1;exitX=0.5;exitY=0;exitDx=0;exitDy=0;dashed=1;endArrow=none;endFill=0;" parent="HGqqvJbhv1KcNYSH-CVA-55" source="HGqqvJbhv1KcNYSH-CVA-42" edge="1">
          <mxGeometry relative="1" as="geometry">
            <mxPoint as="targetPoint" />
          </mxGeometry>
        </mxCell>
        <mxCell id="HGqqvJbhv1KcNYSH-CVA-51" style="edgeStyle=orthogonalEdgeStyle;rounded=0;orthogonalLoop=1;jettySize=auto;html=1;exitX=1;exitY=0.5;exitDx=0;exitDy=0;entryX=0;entryY=0.5;entryDx=0;entryDy=0;endArrow=none;endFill=0;" parent="HGqqvJbhv1KcNYSH-CVA-55" source="HGqqvJbhv1KcNYSH-CVA-33" target="HGqqvJbhv1KcNYSH-CVA-22" edge="1">
          <mxGeometry relative="1" as="geometry">
            <Array as="points">
              <mxPoint x="10.058823529411711" y="5" />
              <mxPoint x="10.058823529411711" y="5" />
            </Array>
          </mxGeometry>
        </mxCell>
        <mxCell id="HGqqvJbhv1KcNYSH-CVA-56" value="1..*" style="text;html=1;align=center;verticalAlign=middle;resizable=0;points=[];autosize=1;strokeColor=none;fillColor=none;fontSize=9;" parent="1" vertex="1">
          <mxGeometry x="460" y="76" width="40" height="20" as="geometry" />
        </mxCell>
        <mxCell id="HGqqvJbhv1KcNYSH-CVA-57" value="1" style="text;html=1;align=center;verticalAlign=middle;resizable=0;points=[];autosize=1;strokeColor=none;fillColor=none;fontSize=9;" parent="1" vertex="1">
          <mxGeometry x="549" y="76" width="30" height="20" as="geometry" />
        </mxCell>
        <mxCell id="HGqqvJbhv1KcNYSH-CVA-58" value="1" style="text;html=1;align=center;verticalAlign=middle;resizable=0;points=[];autosize=1;strokeColor=none;fillColor=none;fontSize=9;" parent="1" vertex="1">
          <mxGeometry x="280" y="76" width="30" height="20" as="geometry" />
        </mxCell>
        <mxCell id="HGqqvJbhv1KcNYSH-CVA-59" value="1..*" style="text;html=1;align=center;verticalAlign=middle;resizable=0;points=[];autosize=1;strokeColor=none;fillColor=none;fontSize=9;" parent="1" vertex="1">
          <mxGeometry x="200" y="76" width="40" height="20" as="geometry" />
        </mxCell>
        <mxCell id="HGqqvJbhv1KcNYSH-CVA-60" value="1" style="text;html=1;align=center;verticalAlign=middle;resizable=0;points=[];autosize=1;strokeColor=none;fillColor=none;fontSize=9;" parent="1" vertex="1">
          <mxGeometry x="474" y="102" width="30" height="20" as="geometry" />
        </mxCell>
        <mxCell id="HGqqvJbhv1KcNYSH-CVA-61" value="1..*" style="text;html=1;align=center;verticalAlign=middle;resizable=0;points=[];autosize=1;strokeColor=none;fillColor=none;fontSize=9;" parent="1" vertex="1">
          <mxGeometry x="510" y="220" width="40" height="20" as="geometry" />
        </mxCell>
        <mxCell id="HGqqvJbhv1KcNYSH-CVA-62" value="1" style="text;html=1;align=center;verticalAlign=middle;resizable=0;points=[];autosize=1;strokeColor=none;fillColor=none;fontSize=9;" parent="1" vertex="1">
          <mxGeometry x="226" y="280" width="30" height="20" as="geometry" />
        </mxCell>
        <mxCell id="HGqqvJbhv1KcNYSH-CVA-63" value="1..*" style="text;html=1;align=center;verticalAlign=middle;resizable=0;points=[];autosize=1;strokeColor=none;fillColor=none;fontSize=9;" parent="1" vertex="1">
          <mxGeometry x="410" y="280" width="40" height="20" as="geometry" />
        </mxCell>
        <mxCell id="fzEFNGZUkJIt1_JFgNu3-1" value="1..*" style="text;html=1;align=center;verticalAlign=middle;resizable=0;points=[];autosize=1;strokeColor=none;fillColor=none;fontSize=9;" vertex="1" parent="1">
          <mxGeometry x="510" y="378" width="40" height="20" as="geometry" />
        </mxCell>
        <mxCell id="fzEFNGZUkJIt1_JFgNu3-2" value="1" style="text;html=1;align=center;verticalAlign=middle;resizable=0;points=[];autosize=1;strokeColor=none;fillColor=none;fontSize=9;" vertex="1" parent="1">
          <mxGeometry x="510" y="490" width="30" height="20" as="geometry" />
        </mxCell>
        <mxCell id="fzEFNGZUkJIt1_JFgNu3-3" value="A)" style="text;html=1;align=center;verticalAlign=middle;resizable=0;points=[];autosize=1;strokeColor=none;fillColor=none;" vertex="1" parent="1">
          <mxGeometry y="10" width="40" height="30" as="geometry" />
        </mxCell>
        <mxCell id="fzEFNGZUkJIt1_JFgNu3-4" value="B)" style="text;html=1;align=center;verticalAlign=middle;resizable=0;points=[];autosize=1;strokeColor=none;fillColor=none;" vertex="1" parent="1">
          <mxGeometry y="638" width="40" height="30" as="geometry" />
        </mxCell>
        <mxCell id="fzEFNGZUkJIt1_JFgNu3-5" value="" style="shape=umlLifeline;perimeter=lifelinePerimeter;whiteSpace=wrap;html=1;container=1;dropTarget=0;collapsible=0;recursiveResize=0;outlineConnect=0;portConstraint=eastwest;newEdgeStyle={&quot;curved&quot;:0,&quot;rounded&quot;:0};participant=umlActor;" vertex="1" parent="1">
          <mxGeometry x="118" y="680" width="20" height="300" as="geometry" />
        </mxCell>
        <mxCell id="fzEFNGZUkJIt1_JFgNu3-13" value="" style="html=1;points=[[0,0,0,0,5],[0,1,0,0,-5],[1,0,0,0,5],[1,1,0,0,-5]];perimeter=orthogonalPerimeter;outlineConnect=0;targetShapes=umlLifeline;portConstraint=eastwest;newEdgeStyle={&quot;curved&quot;:0,&quot;rounded&quot;:0};" vertex="1" parent="fzEFNGZUkJIt1_JFgNu3-5">
          <mxGeometry x="5" y="70" width="10" height="230" as="geometry" />
        </mxCell>
        <mxCell id="fzEFNGZUkJIt1_JFgNu3-6" value="" style="shape=umlLifeline;perimeter=lifelinePerimeter;whiteSpace=wrap;html=1;container=1;dropTarget=0;collapsible=0;recursiveResize=0;outlineConnect=0;portConstraint=eastwest;newEdgeStyle={&quot;curved&quot;:0,&quot;rounded&quot;:0};participant=umlBoundary;" vertex="1" parent="1">
          <mxGeometry x="284" y="680" width="50" height="300" as="geometry" />
        </mxCell>
        <mxCell id="fzEFNGZUkJIt1_JFgNu3-14" value="" style="html=1;points=[[0,0,0,0,5],[0,1,0,0,-5],[1,0,0,0,5],[1,1,0,0,-5]];perimeter=orthogonalPerimeter;outlineConnect=0;targetShapes=umlLifeline;portConstraint=eastwest;newEdgeStyle={&quot;curved&quot;:0,&quot;rounded&quot;:0};" vertex="1" parent="fzEFNGZUkJIt1_JFgNu3-6">
          <mxGeometry x="20" y="70" width="10" height="230" as="geometry" />
        </mxCell>
        <mxCell id="fzEFNGZUkJIt1_JFgNu3-7" value="" style="shape=umlLifeline;perimeter=lifelinePerimeter;whiteSpace=wrap;html=1;container=1;dropTarget=0;collapsible=0;recursiveResize=0;outlineConnect=0;portConstraint=eastwest;newEdgeStyle={&quot;curved&quot;:0,&quot;rounded&quot;:0};participant=umlControl;" vertex="1" parent="1">
          <mxGeometry x="478" y="680" width="40" height="300" as="geometry" />
        </mxCell>
        <mxCell id="fzEFNGZUkJIt1_JFgNu3-15" value="" style="html=1;points=[[0,0,0,0,5],[0,1,0,0,-5],[1,0,0,0,5],[1,1,0,0,-5]];perimeter=orthogonalPerimeter;outlineConnect=0;targetShapes=umlLifeline;portConstraint=eastwest;newEdgeStyle={&quot;curved&quot;:0,&quot;rounded&quot;:0};" vertex="1" parent="fzEFNGZUkJIt1_JFgNu3-7">
          <mxGeometry x="15" y="70" width="10" height="230" as="geometry" />
        </mxCell>
        <mxCell id="fzEFNGZUkJIt1_JFgNu3-8" value="" style="shape=umlLifeline;perimeter=lifelinePerimeter;whiteSpace=wrap;html=1;container=1;dropTarget=0;collapsible=0;recursiveResize=0;outlineConnect=0;portConstraint=eastwest;newEdgeStyle={&quot;curved&quot;:0,&quot;rounded&quot;:0};participant=umlEntity;" vertex="1" parent="1">
          <mxGeometry x="668" y="680" width="40" height="300" as="geometry" />
        </mxCell>
        <mxCell id="fzEFNGZUkJIt1_JFgNu3-16" value="" style="html=1;points=[[0,0,0,0,5],[0,1,0,0,-5],[1,0,0,0,5],[1,1,0,0,-5]];perimeter=orthogonalPerimeter;outlineConnect=0;targetShapes=umlLifeline;portConstraint=eastwest;newEdgeStyle={&quot;curved&quot;:0,&quot;rounded&quot;:0};" vertex="1" parent="fzEFNGZUkJIt1_JFgNu3-8">
          <mxGeometry x="14" y="70" width="10" height="230" as="geometry" />
        </mxCell>
        <mxCell id="fzEFNGZUkJIt1_JFgNu3-9" value="Usuario" style="text;html=1;align=center;verticalAlign=middle;resizable=0;points=[];autosize=1;strokeColor=none;fillColor=none;" vertex="1" parent="1">
          <mxGeometry x="98" y="720" width="60" height="30" as="geometry" />
        </mxCell>
        <mxCell id="fzEFNGZUkJIt1_JFgNu3-10" value=":InterfazDelSistema" style="text;html=1;align=center;verticalAlign=middle;resizable=0;points=[];autosize=1;strokeColor=none;fillColor=none;" vertex="1" parent="1">
          <mxGeometry x="244" y="720" width="130" height="30" as="geometry" />
        </mxCell>
        <mxCell id="fzEFNGZUkJIt1_JFgNu3-11" value=":GestorMedicamento" style="text;html=1;align=center;verticalAlign=middle;resizable=0;points=[];autosize=1;strokeColor=none;fillColor=none;" vertex="1" parent="1">
          <mxGeometry x="433" y="720" width="130" height="30" as="geometry" />
        </mxCell>
        <mxCell id="fzEFNGZUkJIt1_JFgNu3-12" value=":Medicamento" style="text;html=1;align=center;verticalAlign=middle;resizable=0;points=[];autosize=1;strokeColor=none;fillColor=none;" vertex="1" parent="1">
          <mxGeometry x="638" y="720" width="100" height="30" as="geometry" />
        </mxCell>
        <mxCell id="fzEFNGZUkJIt1_JFgNu3-17" value="Selecciona opción &quot;Buscar AT&quot;" style="html=1;verticalAlign=bottom;endArrow=block;curved=0;rounded=0;" edge="1" parent="1" source="fzEFNGZUkJIt1_JFgNu3-13" target="fzEFNGZUkJIt1_JFgNu3-6">
          <mxGeometry width="80" relative="1" as="geometry">
            <mxPoint x="138" y="780" as="sourcePoint" />
            <mxPoint x="218" y="780" as="targetPoint" />
            <Array as="points">
              <mxPoint x="238" y="760" />
            </Array>
          </mxGeometry>
        </mxCell>
        <mxCell id="fzEFNGZUkJIt1_JFgNu3-18" value="Solicita nombre de la AT al usuario" style="html=1;verticalAlign=bottom;endArrow=open;dashed=1;endSize=8;curved=0;rounded=0;" edge="1" parent="1">
          <mxGeometry relative="1" as="geometry">
            <mxPoint x="308" y="780" as="sourcePoint" />
            <mxPoint x="127.20000000000005" y="780" as="targetPoint" />
          </mxGeometry>
        </mxCell>
        <mxCell id="fzEFNGZUkJIt1_JFgNu3-19" value="Ingresa nombre de la AT" style="html=1;verticalAlign=bottom;endArrow=block;curved=0;rounded=0;" edge="1" parent="1">
          <mxGeometry width="80" relative="1" as="geometry">
            <mxPoint x="127.20000000000005" y="800" as="sourcePoint" />
            <mxPoint x="308" y="800" as="targetPoint" />
          </mxGeometry>
        </mxCell>
        <mxCell id="fzEFNGZUkJIt1_JFgNu3-20" value="BuscarMedicamentos()" style="html=1;verticalAlign=bottom;endArrow=block;curved=0;rounded=0;" edge="1" parent="1" source="fzEFNGZUkJIt1_JFgNu3-14">
          <mxGeometry width="80" relative="1" as="geometry">
            <mxPoint x="308.00000000000006" y="810" as="sourcePoint" />
            <mxPoint x="496.8" y="810" as="targetPoint" />
          </mxGeometry>
        </mxCell>
        <mxCell id="fzEFNGZUkJIt1_JFgNu3-21" value="loop" style="shape=umlFrame;whiteSpace=wrap;html=1;pointerEvents=0;width=51;height=20;" vertex="1" parent="1">
          <mxGeometry x="467" y="780" width="261" height="140" as="geometry" />
        </mxCell>
        <mxCell id="fzEFNGZUkJIt1_JFgNu3-23" value="hasta que no hayan más medicamentos" style="text;html=1;align=center;verticalAlign=middle;resizable=0;points=[];autosize=1;strokeColor=none;fillColor=none;fontSize=9;" vertex="1" parent="1">
          <mxGeometry x="508" y="780" width="180" height="20" as="geometry" />
        </mxCell>
        <mxCell id="fzEFNGZUkJIt1_JFgNu3-24" value="BuscarMedicamentos()" style="html=1;verticalAlign=bottom;endArrow=block;curved=0;rounded=0;" edge="1" parent="1" source="fzEFNGZUkJIt1_JFgNu3-15" target="fzEFNGZUkJIt1_JFgNu3-16">
          <mxGeometry width="80" relative="1" as="geometry">
            <mxPoint x="499.20000000000005" y="820" as="sourcePoint" />
            <mxPoint x="688" y="820" as="targetPoint" />
            <Array as="points">
              <mxPoint x="668" y="820" />
            </Array>
          </mxGeometry>
        </mxCell>
        <mxCell id="fzEFNGZUkJIt1_JFgNu3-25" value="alt" style="shape=umlFrame;whiteSpace=wrap;html=1;pointerEvents=0;width=51;height=20;" vertex="1" parent="1">
          <mxGeometry x="478" y="830" width="241" height="81" as="geometry" />
        </mxCell>
        <mxCell id="fzEFNGZUkJIt1_JFgNu3-26" value="si AT == medicamento.AT" style="text;html=1;align=center;verticalAlign=middle;resizable=0;points=[];autosize=1;strokeColor=none;fillColor=none;fontSize=9;" vertex="1" parent="1">
          <mxGeometry x="544" y="830" width="130" height="20" as="geometry" />
        </mxCell>
        <mxCell id="fzEFNGZUkJIt1_JFgNu3-27" value="nombre, precio y presentación del medicamento" style="html=1;verticalAlign=bottom;endArrow=open;dashed=1;endSize=8;curved=0;rounded=0;fontSize=7;" edge="1" parent="1">
          <mxGeometry relative="1" as="geometry">
            <mxPoint x="681.5" y="860" as="sourcePoint" />
            <mxPoint x="502.5" y="860" as="targetPoint" />
            <Array as="points">
              <mxPoint x="647.5" y="860" />
            </Array>
          </mxGeometry>
        </mxCell>
        <mxCell id="fzEFNGZUkJIt1_JFgNu3-28" value="" style="endArrow=none;dashed=1;html=1;rounded=0;exitX=-0.006;exitY=0.536;exitDx=0;exitDy=0;exitPerimeter=0;" edge="1" parent="1" source="fzEFNGZUkJIt1_JFgNu3-25">
          <mxGeometry width="50" height="50" relative="1" as="geometry">
            <mxPoint x="528" y="900" as="sourcePoint" />
            <mxPoint x="718" y="873" as="targetPoint" />
          </mxGeometry>
        </mxCell>
        <mxCell id="fzEFNGZUkJIt1_JFgNu3-29" value="alt" style="shape=umlFrame;whiteSpace=wrap;html=1;pointerEvents=0;width=51;height=20;" vertex="1" parent="1">
          <mxGeometry x="88" y="900" width="261" height="90" as="geometry" />
        </mxCell>
        <mxCell id="fzEFNGZUkJIt1_JFgNu3-30" value="si datos != NULL" style="text;html=1;align=center;verticalAlign=middle;resizable=0;points=[];autosize=1;strokeColor=none;fillColor=none;fontSize=9;" vertex="1" parent="1">
          <mxGeometry x="138" y="900" width="90" height="20" as="geometry" />
        </mxCell>
        <mxCell id="fzEFNGZUkJIt1_JFgNu3-31" value="datos" style="html=1;verticalAlign=bottom;endArrow=open;dashed=1;endSize=8;curved=0;rounded=0;fontSize=12;" edge="1" parent="1">
          <mxGeometry relative="1" as="geometry">
            <mxPoint x="493.5" y="930" as="sourcePoint" />
            <mxPoint x="314.5" y="930" as="targetPoint" />
            <Array as="points">
              <mxPoint x="459.5" y="930" />
            </Array>
          </mxGeometry>
        </mxCell>
        <mxCell id="fzEFNGZUkJIt1_JFgNu3-32" value="nombre, precio y presentación de los medicamentos" style="html=1;verticalAlign=bottom;endArrow=open;dashed=1;endSize=8;curved=0;rounded=0;fontSize=7;" edge="1" parent="1">
          <mxGeometry relative="1" as="geometry">
            <mxPoint x="308" y="940" as="sourcePoint" />
            <mxPoint x="129" y="940" as="targetPoint" />
            <Array as="points">
              <mxPoint x="274" y="940" />
            </Array>
          </mxGeometry>
        </mxCell>
        <mxCell id="fzEFNGZUkJIt1_JFgNu3-33" value="" style="endArrow=none;dashed=1;html=1;rounded=0;" edge="1" parent="1">
          <mxGeometry width="50" height="50" relative="1" as="geometry">
            <mxPoint x="88" y="950" as="sourcePoint" />
            <mxPoint x="349" y="950" as="targetPoint" />
          </mxGeometry>
        </mxCell>
        <mxCell id="fzEFNGZUkJIt1_JFgNu3-34" value="mensaje de error" style="html=1;verticalAlign=bottom;endArrow=open;dashed=1;endSize=8;curved=0;rounded=0;fontSize=12;" edge="1" parent="1">
          <mxGeometry relative="1" as="geometry">
            <mxPoint x="308" y="970" as="sourcePoint" />
            <mxPoint x="129" y="970" as="targetPoint" />
            <Array as="points">
              <mxPoint x="274" y="970" />
            </Array>
          </mxGeometry>
        </mxCell>
      </root>
    </mxGraphModel>
  </diagram>
</mxfile>
